<svg width="1364" height="244" viewBox="0 0 1364 244" fill="none" xmlns="http://www.w3.org/2000/svg">
<rect width="22.8959" height="2.97283" transform="matrix(-0.112935 0.993602 -0.991318 -0.131488 1363.31 78.0531)" fill="#03A3F5"/>
<rect width="22.8959" height="2.97283" transform="matrix(-0.112935 0.993602 -0.991318 -0.131488 1363.31 78.0531)" fill="#03A3F5"/>
<rect width="22.8959" height="2.97283" transform="matrix(-0.112935 0.993602 -0.991318 -0.131488 423.533 0.757568)" fill="#03A3F5"/>
<rect width="35.6248" height="2.97283" transform="matrix(0.112935 -0.993602 0.991318 0.131488 149 65.796)" fill="#BA3E03" fill-opacity="0.35"/>
<rect width="28.2889" height="3.15801" transform="matrix(0.894951 -0.446164 0.394385 0.918945 539.402 14.7249)" fill="#BA3E03" fill-opacity="0.35"/>
<rect width="57.2787" height="4.34004" transform="matrix(0.983322 0.181874 -0.156542 0.987671 193.602 202.042)" fill="#755FFE" fill-opacity="0.85"/>
<rect width="38.8186" height="3.15648" transform="matrix(0.867137 0.49807 -0.441609 0.897207 294.395 215.399)" fill="#C8DCFF"/>
<rect width="60.8124" height="3.01981" transform="matrix(-0.389274 0.921122 -0.895037 -0.445993 1199.19 139.018)" fill="#68C6E3" fill-opacity="0.9"/>
<rect width="29.2995" height="3.14009" transform="matrix(0.822594 -0.56863 0.509655 0.860379 459 235.06)" fill="#A636FF" fill-opacity="0.85"/>
<rect width="53.4464" height="2.98793" transform="matrix(0.256556 -0.966529 0.955222 0.29589 1317 136.057)" fill="#B6EA61" fill-opacity="0.58"/>
<rect width="20.4591" height="3.16621" transform="matrix(-0.91073 -0.413002 0.358459 -0.933545 916.911 215.626)" fill="#FF21FB"/>
<rect width="29.5648" height="1.9277" transform="matrix(-0.288032 0.957621 -0.943564 -0.331189 1270.32 31.2538)" fill="#4BC8EF" fill-opacity="0.35"/>
<rect width="30.8996" height="1.91329" transform="matrix(0.0645962 0.997912 -0.997159 0.0753246 1345.34 5.00012)" fill="#9AF5FC" fill-opacity="0.35"/>
<rect x="626.35" y="227.089" width="42.3501" height="3.20746" transform="rotate(-180 626.35 227.089)" fill="#9DED1A" fill-opacity="0.45"/>
<rect width="58.994" height="2.99531" transform="matrix(0.303691 0.952771 -0.937261 0.348627 99.1426 92.7999)" fill="#FC9E1C"/>
<path d="M323.463 9.97233L337.834 9.43017L338.336 24.9556L323.964 25.4977L323.463 9.97233Z" fill="#C7DCFF"/>
<path d="M1106.57 216.378L1102.46 225.677L1092.97 224.269L1091.22 214.1L1099.63 209.224L1106.57 216.378Z" fill="#F54721"/>
<path d="M1064.07 17.0679L1045.97 27.4633L1046.68 5.33397L1064.07 17.0679Z" fill="#F579B5"/>
<path d="M689.377 29.47L695.111 26.0363L700.731 29.6841L700.617 36.7657L694.882 40.1994L689.262 36.5516L689.377 29.47Z" fill="#03A3F5"/>
<path d="M33.7232 142.678L44.4493 141.255L49.0164 151.836L41.1129 159.797L31.6611 154.138L33.7232 142.678Z" fill="#BA3E03" fill-opacity="0.65"/>
<path d="M393.356 242.559L381.432 228.746L394.219 215.865L406.142 229.678L393.356 242.559Z" fill="#DCBCFA" fill-opacity="0.9"/>
<path d="M13.1728 59.8901L28.4215 78.8397L5.6056 83.6306L13.1728 59.8901Z" fill="#03A3F5" fill-opacity="0.35"/>
<path d="M803.413 16.1071L807.606 6.82054L817.078 8.25851L818.739 18.4338L810.294 23.2845L803.413 16.1071Z" fill="#DCBCFA" fill-opacity="0.85"/>
<path d="M1215.8 36.4122L1221.6 29.4565L1230.07 31.4025L1232.75 40.3042L1226.95 47.26L1218.48 45.3139L1215.8 36.4122Z" fill="#C8DCFE"/>
<path d="M1254.94 120.892L1252.18 132.87L1240.78 133.731L1236.5 122.285L1245.25 114.35L1254.94 120.892Z" fill="#FC9E1C" fill-opacity="0.35"/>
<path d="M1008.46 224.745L996.899 212.834L1012.17 208.045L1008.46 224.745Z" fill="#F62584" fill-opacity="0.6"/>
<path d="M154.485 128.528L143.621 126.879L141.716 115.208L151.402 109.644L159.294 117.877L154.485 128.528Z" fill="#C0F1B6" fill-opacity="0.62"/>
<path d="M226.547 21.6955L217.332 22.9177L213.409 13.8286L220.199 6.98911L228.318 11.8511L226.547 21.6955Z" fill="#480CA7" fill-opacity="0.6"/>
</svg>
