<svg width="1440" height="653" viewBox="0 0 1440 653" fill="none" xmlns="http://www.w3.org/2000/svg">
<mask id="mask0_3_855" style="mask-type:alpha" maskUnits="userSpaceOnUse" x="-306" y="0" width="1881" height="653">
<rect x="-305.516" y="0.262085" width="1879.53" height="652.01" rx="49" fill="#1A1A1A"/>
</mask>
<g mask="url(#mask0_3_855)">
<rect x="-246.882" y="2.26208" width="1864.91" height="648.01" rx="47" fill="#F9FBFF" stroke="#EBF2FF" stroke-width="4"/>
<mask id="mask1_3_855" style="mask-type:alpha" maskUnits="userSpaceOnUse" x="325" y="-78" width="1070" height="995">
<path d="M325.191 -77.3785H1394.86V916.253H325.191V-77.3785Z" fill="#C4C4C4"/>
</mask>
<g mask="url(#mask1_3_855)">
<path d="M1524.71 -725.912C1479.75 -703.777 1391.07 -607.363 1396.06 -398.796C1402.29 -138.086 1538.32 25.0621 1572.32 271.014C1597.42 452.546 1593.86 907.211 1440.83 1098.23" stroke="#E9F0FF" stroke-width="2.30422"/>
<path d="M1463.47 -672.108C1418.5 -649.973 1329.82 -553.559 1334.81 -344.992C1341.05 -84.2822 1477.07 78.8662 1511.08 324.818C1536.18 506.35 1532.61 961.015 1379.59 1152.04" stroke="#E9F0FF" stroke-width="2.30422"/>
<path d="M1401.29 -620.573C1356.32 -598.438 1267.64 -502.024 1272.63 -293.457C1278.87 -32.7474 1414.89 130.401 1448.9 376.353C1474 557.884 1470.43 1012.55 1317.41 1203.57" stroke="#E9F0FF" stroke-width="2.30422"/>
<path d="M1338.24 -571.294C1293.28 -549.158 1204.6 -452.745 1209.58 -244.177C1215.82 16.5321 1351.84 179.68 1385.85 425.633C1410.95 607.164 1407.39 1061.83 1254.36 1252.85" stroke="#E9F0FF" stroke-width="2.30422"/>
<path d="M1274.34 -524.368C1229.38 -502.233 1140.7 -405.819 1145.69 -197.252C1151.92 63.4578 1287.94 226.606 1321.95 472.558C1347.05 654.09 1343.49 1108.76 1190.46 1299.78" stroke="#E9F0FF" stroke-width="2.30422"/>
<path d="M1209.59 -479.969C1164.62 -457.834 1075.94 -361.42 1080.93 -152.853C1087.16 107.857 1223.19 271.005 1257.19 516.958C1282.29 698.489 1278.73 1153.15 1125.7 1344.18" stroke="#E9F0FF" stroke-width="2.30422"/>
<path d="M1143.96 -438.339C1098.99 -416.204 1010.31 -319.79 1015.3 -111.223C1021.53 149.487 1157.56 312.635 1191.57 558.587C1216.66 740.118 1213.1 1194.78 1060.07 1385.81" stroke="#E9F0FF" stroke-width="2.30422"/>
<path d="M1077.43 -399.793C1032.47 -377.658 943.789 -281.244 948.776 -72.6766C955.011 188.033 1091.04 351.181 1125.04 597.134C1150.14 778.665 1146.58 1233.33 993.551 1424.35" stroke="#E9F0FF" stroke-width="2.30422"/>
<path d="M1009.99 -364.733C965.031 -342.597 876.35 -246.184 881.338 -37.6166C887.572 223.093 1023.6 386.241 1057.6 632.194C1082.7 813.725 1079.14 1268.39 926.113 1459.41" stroke="#E9F0FF" stroke-width="2.30422"/>
<path d="M941.626 -333.667C896.662 -311.532 807.982 -215.118 812.969 -6.55076C819.204 254.159 955.229 417.307 989.235 663.259C1014.33 844.791 1010.77 1299.46 857.744 1490.48" stroke="#E9F0FF" stroke-width="2.30422"/>
<path d="M872.331 -307.241C827.367 -285.105 738.687 -188.692 743.674 19.8759C749.909 280.585 885.933 443.734 919.94 689.686C945.039 871.217 941.477 1325.88 788.449 1516.91" stroke="#E9F0FF" stroke-width="2.30422"/>
<path d="M802.151 -286.27C757.187 -264.135 668.506 -167.721 673.494 40.8462C679.728 301.556 815.753 464.704 849.759 710.656C874.858 892.188 871.296 1346.85 718.269 1537.88" stroke="#E9F0FF" stroke-width="2.30422"/>
<path d="M731.19 -271.794C686.227 -249.658 597.546 -153.245 602.534 55.3224C608.768 316.032 744.793 479.18 778.799 725.133C803.898 906.664 800.336 1361.33 647.308 1552.35" stroke="#E9F0FF" stroke-width="2.30422"/>
<path d="M659.677 -265.115C614.713 -242.98 526.033 -146.566 531.02 62.0012C537.255 322.711 673.279 485.859 707.285 731.811C732.385 913.343 728.823 1368.01 575.795 1559.03" stroke="#E9F0FF" stroke-width="2.30422"/>
<path d="M588.04 -267.833C543.076 -245.697 454.395 -149.283 459.383 59.2841C465.617 319.994 601.642 483.142 635.648 729.094C660.747 910.625 657.185 1365.29 504.158 1556.31" stroke="#E9F0FF" stroke-width="2.30422"/>
<path d="M517.03 -281.793C472.067 -259.658 383.386 -163.244 388.374 45.3234C394.608 306.033 530.633 469.181 564.639 715.134C589.738 896.665 586.176 1351.33 433.148 1542.35" stroke="#E9F0FF" stroke-width="2.30422"/>
<path d="M447.857 -308.879C402.893 -286.743 314.213 -190.33 319.2 18.2374C325.435 278.947 461.459 442.095 495.465 688.048C520.565 869.579 517.003 1324.24 363.975 1515.27" stroke="#E9F0FF" stroke-width="2.30422"/>
<path d="M370.331 -357.824C325.367 -335.688 236.686 -239.275 241.674 -30.7074C247.908 230.002 383.933 393.15 417.939 639.103C443.038 820.634 439.477 1275.3 286.449 1466.32" stroke="#E9F0FF" stroke-width="2.30422"/>
<path d="M303.909 -396.734C258.945 -374.598 170.264 -278.185 175.252 -69.617C181.486 191.092 317.511 354.241 351.517 600.193C376.616 781.724 373.055 1236.39 220.027 1427.41" stroke="#E9F0FF" stroke-width="2.30422"/>
</g>
</g>
</svg>
