<svg width="15" height="14" viewBox="0 0 14.6 13.2" fill="none" xmlns="http://www.w3.org/2000/svg">
<g id="Frame 2147225988">
<g id="Vector">
<path d="M2.06959 2.08951C3.01385 1.12838 4.28516 0.593131 5.60724 0.600067C6.92933 0.607002 8.19536 1.15556 9.13023 2.12655C10.0651 3.09753 10.5933 4.41247 10.5999 5.78563C10.6066 7.15879 10.0913 8.47921 9.16589 9.45995L6.51365 12.2146C6.27601 12.4614 5.95376 12.6 5.61774 12.6C5.28172 12.6 4.95947 12.4614 4.72183 12.2146L2.06959 9.45995C1.12862 8.48253 0.6 7.15693 0.6 5.77473C0.6 4.39252 1.12862 3.06692 2.06959 2.08951Z" stroke="var(--stroke-0, #777777)" stroke-width="1.2" stroke-linecap="round" stroke-linejoin="round"/>
<path d="M5.61774 7.74895C6.66752 7.74895 7.51854 6.86506 7.51854 5.77473C7.51854 4.68439 6.66752 3.8005 5.61774 3.8005C4.56796 3.8005 3.71694 4.68439 3.71694 5.77473C3.71694 6.86506 4.56796 7.74895 5.61774 7.74895Z" stroke="var(--stroke-0, #777777)" stroke-width="1.2" stroke-linecap="round" stroke-linejoin="round"/>
</g>
</g>
</svg>
