<svg width="129" height="20" viewBox="0 0 129 20" fill="none" xmlns="http://www.w3.org/2000/svg">
<g id="Vector">
<path d="M22.7727 6.16772C23.051 6.12909 23.6377 6.13095 23.9406 6.12387C23.7408 6.23544 23.5438 6.32545 23.3297 6.41082C17.2119 8.84714 12.4242 13.6199 8.18247 18.5065C6.92629 19.9536 5.57516 19.9559 3.8384 19.9473C4.31506 18.5594 4.95476 16.9972 5.50726 15.6317C5.8812 14.3921 6.67654 13.0239 6.87134 11.7557C6.97009 11.1129 6.62417 10.6631 6.22963 10.217C7.05087 10.2851 8.74856 9.93255 9.08591 10.8986C9.50377 12.0951 8.31343 14.2992 7.8781 15.4678C8.44696 14.6836 9.83011 13.3408 10.5541 12.6947C14.0689 9.5581 18.081 7.01555 22.7727 6.16772Z" fill="#FE6900"/>
<path d="M75.9531 6.23969L77.1074 6.22173C77.4578 6.88634 78.0163 8.51912 78.3107 9.30238L80.5575 15.2951C79.8999 15.3051 79.2422 15.3056 78.5845 15.2964C78.3416 14.5754 78.111 13.8912 77.9036 13.1595L76.4723 13.1604C74.2499 13.149 74.4187 13.2004 73.7172 15.3024L71.7995 15.2956C71.9689 14.7588 72.1648 14.2282 72.3728 13.7C73.2927 11.3684 74.0483 8.93039 75.0809 6.65425C75.1955 6.40103 75.6948 6.278 75.9531 6.23969ZM75.0261 11.5298L76.2185 11.5149C76.5122 11.5177 77.014 11.5094 77.2871 11.545C77.1602 11.1482 76.3177 8.67157 76.1605 8.38128C75.8062 9.37584 75.4165 10.5626 75.0261 11.5298Z" fill="var(--fill-0, #003A70)"/>
<path d="M46.6584 8.88249C48.0907 8.97623 50.1523 8.52968 51.3226 9.41994C53.4794 11.0608 52.8459 14.8939 49.9757 15.3455L48.2666 15.371C48.2716 16.1857 48.271 17.0005 48.2648 17.8152C47.7345 17.794 47.1177 17.8078 46.5803 17.8074C46.5708 16.9039 46.485 9.07898 46.6584 8.88249ZM48.2574 13.6429C49.1823 13.6555 49.7079 13.7824 50.4443 13.2263C51.0607 12.56 51.0669 11.6055 50.4101 10.9657C49.9006 10.4693 49.0002 10.5854 48.3345 10.5992C48.1987 11.1841 48.2958 12.9151 48.2574 13.6429Z" fill="#FE6900"/>
<path d="M124.382 6.23165L126.026 6.22855C126.064 9.23407 126.012 12.2818 126.036 15.2971C124.869 15.3082 122.84 15.4611 121.831 15.0382C119.802 14.249 119.478 11.0144 121.013 9.60922C122.033 8.67505 123.078 8.77845 124.352 8.79763C124.352 7.97413 124.332 7.04465 124.382 6.23165ZM123.128 13.6131L124.368 13.6124C124.351 12.6558 124.387 11.4483 124.328 10.5216C123.959 10.5249 123.388 10.5122 123.036 10.541C121.111 11.0887 121.412 13.2378 123.128 13.6131Z" fill="var(--fill-0, #003A70)"/>
<path d="M12.0136 0C12.3029 0.173205 14.1012 5.41336 14.5253 6.24781C15.651 6.17666 17.4296 6.23023 18.6274 6.21703C18.1975 6.44391 17.5892 6.69204 17.1281 6.92233C16.5766 7.19782 15.658 7.74931 15.1128 7.91104C14.7699 8.01282 13.6328 7.9702 13.227 7.96383C12.9035 7.46957 12.3541 5.70192 12.0554 5.00518C11.7417 5.91643 11.3058 7.06088 10.9447 7.95443C10.5221 7.97194 10.0361 7.96364 9.60819 7.96673C8.46332 7.96383 3.29247 8.1224 2.56624 7.85399C1.73217 7.54573 0.748008 6.71315 0 6.20068C0.907876 6.28772 2.47766 6.2413 3.42538 6.24085L9.66076 6.22392C10.4057 4.12071 11.2203 2.08423 12.0136 0Z" fill="var(--fill-0, #003A70)"/>
<path d="M53.3166 8.86233C54.3425 8.89227 55.4431 8.8172 56.4518 8.88583C60.0329 9.12965 60.3685 14.4002 56.8815 15.3226C56.4029 15.3729 55.5607 15.357 55.0496 15.3605C55.0315 16.1796 55.023 16.9989 55.024 17.8182C54.4541 17.7959 53.8759 17.8085 53.3052 17.8147L53.3166 8.86233ZM55.0042 13.6335C55.9126 13.6583 56.3122 13.7607 57.1005 13.2868C57.7101 12.6169 57.8571 11.6768 57.1583 10.9787C56.6578 10.4787 55.6913 10.5852 55.0134 10.5997C55.0465 11.4743 55.0404 12.7482 55.0042 13.6335Z" fill="#FE6900"/>
<path d="M81.0059 8.86987C82.3103 8.90959 84.6551 8.60867 85.7076 9.40243C87.8649 11.0301 87.2968 14.8512 84.3948 15.3418C83.9903 15.374 83.1252 15.3524 82.6936 15.3534L82.6955 17.8211L81.02 17.8224C81.0349 14.8861 81.0619 11.7971 81.0059 8.86987ZM82.7 13.6548C83.4531 13.6437 84.2299 13.7454 84.8206 13.2495C85.3965 12.5743 85.6554 11.6936 84.8702 11.0392C84.2273 10.5034 83.484 10.5767 82.7058 10.594C82.6904 11.6142 82.6884 12.6345 82.7 13.6548Z" fill="var(--fill-0, #003A70)"/>
<path d="M87.7348 8.8691C89.1726 8.93837 91.3299 8.5629 92.4874 9.45838C94.6009 11.0929 93.9323 14.9489 91.0941 15.3355C90.772 15.371 89.7729 15.3604 89.4103 15.365C89.4167 16.1881 89.4167 17.0113 89.4096 17.8344C88.9381 17.8073 88.1902 17.8101 87.7342 17.8506L87.7348 8.8691ZM89.4103 13.666C90.3565 13.5957 90.7643 13.7856 91.5643 13.2353C91.8684 12.8198 92.1492 12.3579 92.0417 11.833C91.7711 10.5158 90.3437 10.5724 89.4141 10.5942L89.4103 13.666Z" fill="var(--fill-0, #003A70)"/>
<path d="M42.3892 8.85551C44.2167 8.82924 45.7236 10.2802 45.7656 12.1063C45.8076 13.9325 44.3689 15.4511 42.5422 15.5087C40.6932 15.567 39.1511 14.1076 39.1087 12.2592C39.0661 10.4107 40.5395 8.8821 42.3892 8.85551ZM41.8585 13.6938C42.18 13.8153 42.5317 13.8315 42.863 13.7399C43.7223 13.5026 44.2283 12.6161 43.9953 11.756C43.7624 10.896 42.8781 10.3856 42.0164 10.6138C41.3356 10.7941 40.8494 11.3933 40.8133 12.0963C40.7773 12.7993 41.1997 13.4449 41.8585 13.6938Z" fill="#FE6900"/>
<path d="M101.665 8.93682C103.458 8.54365 105.232 9.67727 105.626 11.4696C106.021 13.2619 104.888 15.035 103.096 15.4309C101.3 15.8274 99.5236 14.6936 99.1287 12.8993C98.7332 11.105 99.8695 9.33045 101.665 8.93682ZM101.097 11.1892C100.67 11.7356 100.638 12.4922 101.017 13.0725C101.396 13.6528 102.101 13.9286 102.773 13.7592C103.643 13.5399 104.17 12.6571 103.95 11.7881C103.729 10.9191 102.846 10.3936 101.976 10.6147C101.627 10.7034 101.318 10.9055 101.097 11.1892Z" fill="var(--fill-0, #003A70)"/>
<path d="M27.3933 6.2368C28.5359 6.18394 29.7095 6.20377 30.8541 6.22102C30.891 6.7373 30.8699 7.41813 30.8678 7.9467C30.4443 7.9429 26.4334 7.64746 26.8355 8.55536C27.3857 9.79741 29.4027 9.6879 30.5592 10.9544C32.1273 12.6717 31.0676 15.3395 28.7398 15.296L25.1196 15.3011L25.1192 13.6233C26.3833 13.6234 27.6541 13.6486 28.9146 13.6069C29.3516 13.5924 29.7098 12.9741 29.5939 12.636C29.1554 11.357 27.237 11.3137 26.2777 10.5596C25.7765 10.1953 25.2157 9.63639 25.1428 8.97088C24.967 7.36579 25.9734 6.49149 27.3933 6.2368Z" fill="#FE6900"/>
<path d="M32.4823 6.23705C32.9291 6.25933 33.6842 6.22637 34.1577 6.22083C34.2085 6.75996 34.1529 8.27524 34.1481 8.85622C38.1562 8.88757 38.4401 9.22564 38.3716 13.4475C38.3623 14.026 38.3684 14.7083 38.3827 15.292L36.6298 15.2976C36.6496 14.4318 36.6507 13.3137 36.6085 12.4618L36.5708 11.2345C36.0154 10.3326 35.1472 10.583 34.1973 10.6088C34.1892 12.142 34.128 13.7719 34.2099 15.2895L32.4068 15.2972C32.4483 14.0783 32.2971 6.64233 32.4823 6.23705Z" fill="#FE6900"/>
<path d="M62.6909 8.92331C62.8959 8.90779 63.1007 8.90283 63.3062 8.90856C65.4178 8.95562 66.5142 10.6259 66.4607 12.616C64.8889 12.5798 63.3185 12.6385 61.7323 12.5871L61.9943 13.2495C63.0679 14.0544 63.7855 13.9843 64.7086 13.0413L65.4519 13.3624C65.6896 13.469 65.9338 13.5511 66.0562 13.7556C65.9711 14.4437 64.5559 15.2879 63.8782 15.4286C63.0659 15.6027 62.2171 15.4435 61.5228 14.9868C60.7843 14.4919 60.2728 13.7241 60.1007 12.8523C59.7229 10.9879 60.8167 9.29871 62.6909 8.92331ZM61.7193 11.5065C62.3659 11.5016 63.0125 11.5 63.6592 11.502L64.8129 11.4918C64.1346 10.6575 63.8982 10.5237 62.8018 10.6152C62.2079 10.866 62.1134 10.9923 61.7193 11.5065Z" fill="#FE6900"/>
<path d="M115.588 8.92582C115.744 8.91783 115.9 8.91281 116.055 8.91081C118.356 8.87869 119.265 10.5411 119.29 12.6097C118.074 12.5175 115.838 12.592 114.562 12.6036C115.277 14.1391 116.481 14.1574 117.589 13.0258L118.155 13.287C118.371 13.3667 118.744 13.5584 118.966 13.6651C118.6 14.5415 117.802 15.1968 116.848 15.3949C113.781 16.0324 111.883 12.7845 113.471 10.2577C113.926 9.53274 114.741 9.08928 115.588 8.92582ZM114.565 11.5144C115.266 11.4941 115.967 11.4877 116.668 11.4953L117.712 11.5053C117.038 10.732 116.834 10.548 115.772 10.5991C115.154 10.7975 114.996 11.034 114.565 11.5144Z" fill="var(--fill-0, #003A70)"/>
<path d="M16.5438 11.6849C16.6531 11.7773 19.4528 19.225 19.7543 20C18.5236 19.2771 17.1365 18.3355 15.9235 17.5487C14.8457 16.8217 13.5948 15.9973 12.4876 15.3235C14.2586 13.5284 14.0448 14.1468 16.0634 15.537C15.7847 14.7186 15.3922 13.7014 15.0652 12.9005C15.5643 12.5049 16.0153 12.0934 16.5438 11.6849Z" fill="var(--fill-0, #003A70)"/>
<path d="M105.638 9.12237C106.106 9.0672 107.124 9.08555 107.636 9.08252C108.01 10.2223 108.738 11.9346 109.197 13.0706C109.679 11.7285 110.191 10.3974 110.733 9.07846C111.376 9.09282 112.045 9.08709 112.691 9.09089C112.435 9.62255 112.17 10.1458 111.977 10.7034C111.381 12.1978 110.632 13.7629 110.012 15.2939C109.466 15.3185 108.842 15.3025 108.291 15.3009C107.963 14.4634 105.999 9.5413 105.638 9.12237Z" fill="var(--fill-0, #003A70)"/>
<path d="M70.6742 8.94043C71.1328 8.94783 71.7151 8.83677 71.9296 9.28731C71.9232 9.57607 71.5947 10.3195 71.4787 10.6346C68.5201 9.90293 69.1874 13.424 69.2222 15.2903L68.3236 15.2971L67.3915 15.2921C67.4978 13.3077 67.3625 11.1156 67.4495 9.07917C67.8791 9.06436 68.5697 9.02361 69.0013 9.07743C69.1089 9.09089 69.1507 9.25905 69.1997 9.37449C69.6184 9.34507 69.7704 9.00809 70.6742 8.94043Z" fill="#FE6900"/>
<path d="M97.8024 8.94217C98.1632 8.94384 98.6572 8.88423 98.9097 9.1243C99.0547 9.56499 98.6643 10.1739 98.4472 10.6401C98.1844 10.5621 97.7638 10.469 97.5383 10.5025C95.4171 10.8164 96.5972 13.9407 96.1456 15.2629C96.1366 15.289 95.9215 15.2979 95.8616 15.3031L94.4953 15.3025C94.5604 13.38 94.5314 11.0115 94.4953 9.08464C94.9469 9.08889 95.7965 9.02619 96.1888 9.11156C96.2326 9.21882 96.2281 9.25584 96.2287 9.37256C96.3537 9.38215 96.4181 9.32704 96.5263 9.26028C96.9367 9.00816 97.329 8.98428 97.8024 8.94217Z" fill="var(--fill-0, #003A70)"/>
<path d="M127.567 6.41288C128.989 6.2977 129.539 7.42811 128.351 8.17345C127.054 8.34072 126.561 7.18507 127.567 6.41288ZM128.296 7.91747C128.642 7.75221 128.79 7.33952 128.629 6.99192C128.468 6.64439 128.056 6.49142 127.707 6.64896C127.477 6.75243 127.321 6.97119 127.298 7.22183C127.275 7.47247 127.388 7.71628 127.594 7.86024C127.801 8.00419 128.069 8.02602 128.296 7.91747Z" fill="#003A70" fill-opacity="0.988235"/>
<path d="M127.766 6.78037L128.133 6.81977C128.443 7.05026 128.452 7.39463 128.295 7.72613L128.204 7.71615L128.064 7.47543C128.058 7.42676 128.008 7.38407 127.974 7.34544C127.818 7.44363 127.929 7.63059 127.739 7.78279C127.549 7.56086 127.595 7.00532 127.766 6.78037Z" fill="var(--fill-0, #003A70)"/>
</g>
</svg>
