<svg width="78" height="13" viewBox="0 0 78 13" fill="none" xmlns="http://www.w3.org/2000/svg">
<g id="Vector">
<path d="M6.82879 0L8.44085 4.96556H13.6576L9.43716 8.03444L11.0492 13L6.82879 9.93111L2.60837 13L4.22043 8.03444L0 4.96556H5.21673L6.82879 0Z" fill="var(--fill-0, #FE6900)"/>
<path d="M22.9144 0L24.5265 4.96556H29.7432L25.5228 8.03444L27.1348 13L22.9144 9.93111L18.694 13L20.306 8.03444L16.0856 4.96556H21.3023L22.9144 0Z" fill="var(--fill-0, #FE6900)"/>
<path d="M39 0L40.6121 4.96556H45.8288L41.6084 8.03444L43.2204 13L39 9.93111L34.7796 13L36.3916 8.03444L32.1712 4.96556H37.3879L39 0Z" fill="var(--fill-0, #FE6900)"/>
<path d="M55.0856 0L56.6977 4.96556H61.9144L57.694 8.03444L59.306 13L55.0856 9.93111L50.8652 13L52.4772 8.03444L48.2568 4.96556H53.4735L55.0856 0Z" fill="var(--fill-0, #FE6900)"/>
<path d="M71.1712 0L72.7833 4.96556H78L73.7796 8.03444L75.3916 13L71.1712 9.93111L66.9508 13L68.5628 8.03444L64.3424 4.96556H69.5591L71.1712 0Z" fill="var(--fill-0, #FE6900)"/>
</g>
</svg>
